# xmcd
#
# Track frame offsets: 
#        150
#        28615
#        55437
#        77615
#        96732
#        118475
#        143590
#        162255
#
# Disc length: 2418 seconds
#
# Revision: 0
# Processed by: cddbd v1.5.2PL0 Copyright (c) Steve Scherf et al.
# Submitted via: ExactAudioCopy v0.99pb4
#
DISCID=6e097008
DTITLE=Cashmere - Can I
DYEAR=1984
DGENRE=R&B
TTITLE0=Can I
TTITLE1=Someone Like You
TTITLE2=Fascination
TTITLE3=You're All I Need
TTITLE4=We Need Love
TTITLE5=Keep Me Up
TTITLE6=Cutie Pie
TTITLE7=Don't Keep Me Waiting
EXTD=
EXTT0=
EXTT1=
EXTT2=
EXTT3=
EXTT4=
EXTT5=
EXTT6=
EXTT7=
PLAYORDER=
